<svg version="1" xmlns="http://www.w3.org/2000/svg" width="2666.667" height="2666.667" viewBox="0 0 2000.000000 2000.000000"><path d="M488.8 445.5c-.2.2-3.9.6-8.3 1-4.4.3-9.3.8-11 1-1.6.2-5.2.7-8 1-4 .5-18 3-27.5 5-28.8 5.9-70.7 22.7-98 39.2-11.3 6.9-28.4 18.4-30 20.3-.3.3-2.1 1.7-4 3-6 4.1-23 19.1-33.3 29.5-10.1 10.1-20.2 21.6-29.4 33.5-5.4 7-21.3 30.5-21.3 31.6 0 .3-.9 1.8-2 3.4-5.6 7.9-20.1 38.8-26.4 56.5-7.4 20.9-14.9 52.5-17.2 73-.4 3.3-.9 7.3-1.1 9-.8 6-1 52.2-.3 60 4 40.1 12.5 74 27.3 107.5 6.5 14.6 14.7 30.6 20.3 39.3 2.4 3.7 4.4 7 4.4 7.2 0 .4 7.5 11.7 9.7 14.5.6.8 3.5 4.6 6.4 8.5 2.9 3.8 5.5 7.2 5.8 7.5.3.3 2.6 3 5.1 6 9.6 11.9 25.3 27.6 41 41.1 45.5 39 109.9 68.1 168 75.9 4.7.6 9.6 1.3 11 1.5 14.3 2.5 66.5 2.4 79.4-.1 1.1-.2 4.1-.6 6.6-.9 32.4-3.9 73.4-16.6 103.7-32l10.8-5.5 2 2.7c1.1 1.5 4.5 6.3 7.6 10.7 3 4.5 16.5 23.8 29.9 43.1 13.4 19.2 27.9 40.3 32.3 46.8l8.1 11.7h13c7.2 0 27.2.1 44.4.2s31.5-.1 31.8-.5c.3-.3-3.2-6.1-7.9-12.9-4.7-6.8-10.7-15.5-13.3-19.4-17.4-25.2-29.7-43.1-42.4-61.4-8-11.5-19-27.5-24.5-35.5-5.5-8.1-12.1-17.6-14.6-21.3l-4.6-6.7 14.2-14c27.4-26.9 44.1-49.4 63.8-85.5 4-7.4 15.7-33.4 15.7-35 0-.6.9-2.9 2-5.3 4-8.7 12.9-41.7 15.4-56.9 4.8-29.4 6.2-56.9 4.3-83.3-.6-8.7-1.2-13.6-3.2-28.2-3.2-24-12.9-57.3-24-82.9-12.2-27.9-27.8-53.6-47.2-77.9-10.4-13.1-34.1-37.1-47-47.8-7.8-6.4-30.9-23.1-37.8-27.4-12.3-7.6-33.8-18.8-45-23.5-19.6-8.2-28.7-11.3-47.5-16.4-12.7-3.5-33.8-7.4-47.5-8.9-3.3-.4-7.6-.9-9.5-1.2-3.6-.5-49.7-1.2-50.2-.8zm47.2 61.9c1.4.2 5.2.7 8.5 1.1 21.9 2.3 47.1 8.9 71.5 19 9.9 4 28.9 13.2 30 14.4.3.3 2.1 1.5 4 2.5 21.5 11.8 51.9 37.2 70.7 59.1 27.7 32.2 47.9 71.4 58.3 112.5 6 23.9 8.2 41.1 8.4 66.1.3 25.4-2.1 45.9-8.4 70.9-12.2 48.7-37.7 93-74.1 129.1-36.6 36.3-81.3 61.1-131.9 73.4-5.8 1.3-11.9 2.7-13.5 2.9-1.7.2-4.6.6-6.5 1-17.5 3-49.6 4.1-69.1 2.3-13-1.2-30.9-4.3-44.3-7.7-28.7-7.4-58.7-20.8-83.6-37.5-7.4-5-14.4-9.8-15.5-10.7-22.5-18.4-34.6-30.2-48.8-47.7-15-18.5-31.8-47.5-41-70.6-3.5-8.9-10.3-29.5-11.1-33.8-.2-1.2-.9-4-1.4-6.2-1.7-6.2-4.4-22.1-5.9-34.5-1-8.3-1-46.2-.1-56 3.3-33.2 14.5-71.2 29.1-99 19.6-37.4 44.5-67.5 76.2-92.4 8.3-6.6 28.8-20.6 30-20.6.4 0 1.9-.8 3.3-1.9 4.4-3.1 24-12.6 34.7-16.9 20.2-8 45-14.8 61.1-16.8 2.3-.2 5.2-.7 6.4-.9 1.3-.2 6.2-.7 10.9-1.1 4.7-.4 8.8-.8 8.9-1 .6-.4 40.4.4 43.2 1zM1471.8 445.5c-.2.2-3.9.6-8.3.9-14.2 1.1-19.8 1.8-30.5 3.8-14.1 2.6-17.7 3.3-26 5.3-20.3 4.9-48.3 15.5-70 26.6-31.3 15.9-58.8 35.8-84.2 60.9-10.7 10.6-16 16.4-28.7 31.5-10.8 12.9-29.6 43.1-39.1 62.8-5.1 10.7-14.6 33.6-15.4 37.2-.1.5-1.6 5.5-3.4 11-5.1 16.6-10.2 39.5-11.8 53.5-.4 3.6-.8 7.6-1 9-2.3 17.1-2.2 61.2 0 73.6.2 1.1.7 4.6 1 7.9.8 6.9 5 29.1 7.2 38 1.9 7.6 9.2 31 10.9 35 .7 1.6 3 7.3 5.1 12.5 4.3 10.8 15 32.2 21.2 42.4 2.3 3.7 4.2 7.2 4.2 7.7s.4.9.9.9 1.3.9 1.6 2c.3 1.1 1.2 2.6 1.8 3.2.7.7 2.5 3.3 4.2 5.8 9.5 14.5 24.1 31.8 40.4 48.1l12.6 12.6-6.5 9.5c-12.1 17.8-40.5 59-45 65.4-5 7.1-15.8 22.7-35.2 50.9-7.2 10.4-16 23.3-19.6 28.5-3.6 5.2-10.4 15.1-15.1 22-4.7 6.9-9.4 13.7-10.4 15-1.6 2.1-37.5 54.3-68.8 100-5.1 7.4-11.5 16.6-14.2 20.5-2.7 3.8-7.9 11.5-11.7 17-3.8 5.5-7.8 11.3-9 13-1.2 1.6-8.6 12.3-16.4 23.8-7.9 11.4-14.5 21-14.8 21.2-.3.3-3.2-3.3-6.4-8s-8.9-12.9-12.6-18.3c-3.8-5.3-7.3-10.4-7.8-11.2-.6-.8-8.2-11.9-17-24.5-8.8-12.7-16.3-23.7-16.7-24.5-.4-.8-1.1-2-1.6-2.5-1-1.1-15.9-22.8-32.5-47-6.2-9.1-11.6-16.5-12-16.6-1.6-.2-89.2-.4-89.2-.2 0 .3 12.1 18 20.5 29.8 9.1 12.9 14.7 21.1 16 23.2.6.9 1.5 2.4 2.2 3.2 1.3 1.7 11.5 16.4 30.3 43.6 6.3 9.2 12 17.3 12.7 18 .7.7 2 2.6 3 4.3 1 1.7 15.3 22.5 31.8 46.1 33.2 47.7 42.9 61.7 51.1 73.6 3.1 4.4 8.2 11.8 11.5 16.5 12.4 17.8 15.9 23.3 15.2 24.4-2 3.5 2-2 14.4-19.9 7.6-11 16.5-23.8 19.8-28.5 3.2-4.7 7.7-11.2 10-14.5 15.8-22.9 86.6-124.8 99.7-143.5 3.8-5.5 39.3-56.7 52.3-75.5 2.3-3.3 9.8-14.1 16.7-24 6.9-9.9 15.5-22.3 19.1-27.5 3.6-5.2 7.5-10.9 8.7-12.5 1.2-1.7 8.3-11.9 15.8-22.7 11.9-17.2 23.2-33.4 56-80.7 4.1-5.8 9.4-13.7 12-17.4 2.5-3.7 4.8-6.6 5.1-6.5.3.2 7.6 3.7 16.1 7.9 19.2 9.5 37 16.2 61.5 23.3 12.2 3.5 26.4 6.3 41 8.1 2.8.4 6.1.8 7.5 1.1 14 2.4 63.7 2.3 78.5-.1 6.2-1 9.1-1.5 14-2 2.8-.4 5.8-.9 6.7-1.1 1-.3 3-.7 4.5-1 6.1-1 17.2-3.7 27.2-6.5 5.8-1.7 11.1-3.1 11.6-3.3.6-.1 1.5-.4 2-.8.6-.3 3.3-1.3 6-2.1 7.4-2.4 12.5-4.3 18.8-7.1 3.1-1.4 5.8-2.6 6.2-2.6.7 0 22.7-10.9 28-14 35.2-20 63.9-43.3 91.2-74 11.6-13.1 28.7-36.7 35.9-49.5 16.2-29.1 23.4-45.1 31.2-69.5 5.8-18 11-40.6 12.7-55 .3-1.9.7-4.9 1-6.5 1.3-8.4 2-22.1 2-41.5 0-28.3-1-39.1-6-67.5-.3-1.7-2.3-9.8-4.5-18-20.1-77.7-66.2-144.6-132-191.7-45.7-32.6-104.9-55.3-157.5-60.3-3.9-.4-8.3-.9-10-1.2-3-.5-47.2-1.2-47.7-.8zm46.7 61.9c2.2.3 6 .8 8.5 1.1 48.9 6 98.8 27.4 138.5 59.4 8 6.5 7.9 6.4 17.6 15.7 17.2 16.6 27.7 29.2 41.3 49.9 19.3 29.2 34.4 67.1 40 100 3.4 20.1 4.1 28.4 4.1 51 0 23.1-.8 32.6-4.1 50.5-8.6 47-29 90.1-60.9 128.9-6.4 7.8-23.5 25-30.5 30.7-1.9 1.6-4.4 3.7-5.5 4.7-3.8 3.5-16.1 12.4-25 18.2-4.9 3.2-10.1 6.6-11.5 7.5-4.1 2.7-24.5 12.7-33.8 16.6-10.5 4.3-30.7 11.2-38.2 12.9-.3 0-2.3.5-4.5 1s-4.2.9-4.5 1c-.3.1-2.5.5-5 .9-2.5.5-5.4 1-6.5 1.2-24 4.7-64.2 5.3-87.5 1.4-3-.5-6.8-1.1-8.5-1.4-31.6-5-68.8-19.2-98-37.4-8-5-22.2-14.7-23.5-16.2-.3-.3-3.9-3.2-8-6.5s-12.7-11.2-19-17.5c-39.4-39.4-65.5-88.3-76.5-143.2-3.5-18-4.9-33.2-4.9-54.3 0-21.9 1.4-34.7 6.9-62.5 2.7-13.7 11.5-38.4 20.7-57.8 7.8-16.5 24.5-43 33.3-52.8.6-.6 3-3.6 5.4-6.5 12-14.5 36.3-36.5 53.4-48.3 39.1-27 88.3-44.9 132.3-48.2 4.9-.3 9.1-.8 9.2-.9.6-.5 40.4.3 44.7.9z"/></svg>