<svg version="1" xmlns="http://www.w3.org/2000/svg" width="2666.667" height="2666.667" viewBox="0 0 2000.000000 2000.000000"><path d="M485.5 446.1c-29.8 2.1-64.8 9.5-91.5 19.2-65.4 23.9-123.6 68.4-162.5 124.2-31.1 44.6-50.1 92.2-58.7 147.5-1.9 12.6-2.2 18.4-2.3 44 0 31 .8 41.2 5.1 64.5 20.1 110.5 93.9 204.1 196.7 249.5 87.1 38.4 186.8 38.2 274.2-.5 8.3-3.7 16.9-7.7 19.2-9.1 2.3-1.3 4.3-2.4 4.6-2.4.2 0 18.3 25.9 40.3 57.5l39.9 57.5h44.8c24.6 0 44.7-.3 44.6-.8 0-.4-24.2-35.8-53.8-78.7l-53.9-78 14.2-14c29.2-28.8 48.9-56 66.6-91.4 23.1-46.3 35.1-96.3 35.1-146.5.2-111.1-48.9-210.3-136.7-276.1-64.3-48.2-145.6-72.2-225.9-66.4zm60.2 62.3c33.2 4.9 58.9 12.9 87.8 27.1 75.9 37.3 131.6 110.2 148.5 194.2 7 35 7 75.9 0 110.5-16.1 79-66.7 147.7-138 187.6-31.2 17.4-64.5 28.2-103 33.3-12.2 1.7-51.7 1.7-64 .1-51.1-6.8-95.5-24.8-136-55-15.2-11.4-42-38.2-53.2-53.2-29.6-39.7-46.5-80-54-128.3-1.8-11.8-2.2-18.7-2.2-40.2-.1-16.8.4-29.4 1.2-35.5 8.4-58.8 32.4-110.2 71.4-152.7 45.1-49.1 107.1-80.8 172.8-88.2 5.2-.6 10.9-1.3 12.5-1.5 6.5-.9 46.5.4 56.2 1.8zM1472.5 445.7c-37 2-78 11.3-111.9 25.5-84.4 35.3-152 103.7-185.5 188-18.1 45.4-25.6 90.2-23.2 137.9 2.5 50.5 12.4 91 32.6 133.7 16.7 35 36.5 63 65.9 93l14 14.2-4 5.8c-2.2 3.1-62.2 90.2-133.3 193.5-104.3 151.4-129.6 187.6-130.6 186.5-.7-.7-24.6-35.2-53-76.6l-51.8-75.2h-89.9l4.5 6.2c12.8 18.2 188.7 271.8 189.6 273.7 1.1 2 2.8-.2 21.9-27.7 11.4-16.4 85.3-122.8 164.2-236.4l143.4-206.6 11.7 5.8c43.6 21.9 85 33 135.1 36.2 38.6 2.4 84.2-3.5 122.3-15.8 125.9-41 216.8-151 232.9-282 4.3-35.4 2.5-73.9-5.5-111.9-16.5-79.3-62.4-151-128.4-200.5-63.3-47.5-142-71.5-221-67.3zm54.5 62.7c50.8 7.6 91.9 24.5 132 54.4 14.9 11.1 41.7 37.9 53.2 53.3 29.7 39.6 47.5 83 54.4 132.9 2.2 15.8 2.5 55 .5 69-8.7 62.3-34.4 116.2-76 159.3-78 80.8-195.9 107.1-300.6 67-87.8-33.7-154.1-112.2-172.4-204.1-4.2-21.2-5.4-33.9-5.5-58.2 0-43.3 8.6-79.9 28.5-120.6 21.1-43.4 53.6-80.5 94.4-107.9 40.1-26.9 83.9-42.2 134.5-46.9 9.5-.8 46.9.3 57 1.8z"/></svg>