<svg version="1" xmlns="http://www.w3.org/2000/svg" width="1333.333" height="1333.333" viewBox="0 0 1000.000000 1000.000000"><path d="M479.7 50.6c-.1.1-4.7.5-10.2.8-5.5.3-11.3.8-13 1-1.6.2-6.1.7-10 1.1-3.8.3-8.8 1-11 1.5-2.2.5-6.2 1.1-9 1.5-8.2 1.2-8.5 1.2-21.5 4-53.4 11.3-107 33.9-153.5 64.8-45.8 30.5-89.5 72.8-118.4 114.7-27.1 39.3-45.7 76-59.6 117.4-5.2 15.6-13.7 48.1-15 57.6-.4 2.4-.8 4.7-1 5-.2.3-.6 2.7-.9 5.3-.3 2.6-.8 5.7-1 6.9-.7 3-1.5 9-2.2 15.3-.3 2.7-.7 6.6-.9 8.5-2.4 19.9-2.4 67.1 0 88.5 2.5 21.6 3.9 31.1 7 46 1 4.4 1.9 9.1 2.2 10.4.2 1.4.6 2.8.8 3.1.2.4.7 2.1 1 3.8.3 1.8 2.5 10.1 5 18.5 9 31.1 22.5 63.7 37.7 90.8 8.5 15.1 8 14.3 18.2 29.8 27.3 41.7 59.4 76.5 99.5 107.9 9.3 7.4 47 33.2 48.3 33.2.3 0 4.9 2.4 10.1 5.4 26.8 15.2 60 29.1 91.4 38.1 18.1 5.3 41.3 10.7 51.3 11.9 1.9.2 4.6.7 6 1 2.4.5 5 .8 16.5 2.1 2.8.3 6.6.7 8.5 1 16 1.9 55.2 2.5 74.2 1.1 15.2-1 17.3-1.3 44.2-5.1 21.1-3 56.2-12.3 79.9-21.1 72.7-27 132-67.8 184.7-127 46.2-51.9 81.3-120 98.2-190.4 3.4-14.3 3.4-14.6 4.2-19.1.3-1.9.8-4.4 1-5.5.6-2.9 1.7-9.3 2.1-12.9.3-1.7.9-6.2 1.4-10 3.9-27.3 4.7-75.7 1.7-101-.2-1.7-.7-5.7-1-9-.4-3.3-.9-7.1-1.1-8.5-.2-1.4-.7-4.3-1-6.5-.4-3.4-2.3-14-3.9-22.5-1.6-8.7-2.6-13.3-3-13.9-.3-.4-.8-2.2-1.1-3.9-.3-1.8-2.5-10.2-5-18.7-18.6-64.2-53-125.6-98.3-175.4C778 137.5 706.8 92.4 630.5 69.6c-12.7-3.8-38.3-10.1-45-11.1-2.2-.3-4.7-.7-5.5-1-.8-.2-3.1-.6-5-.9-1.9-.2-6.4-.9-10-1.5-3.6-.5-9.2-1.3-12.5-1.7-3.3-.3-7.3-.8-9-1-10.4-1.2-62.8-2.7-63.8-1.8zm43.3 60.9c16.5.8 27.6 2 44.5 5 4.4.8 9.6 1.7 11.5 2 1.9.3 5.3 1.1 7.5 1.6 2.2.6 5.6 1.5 7.5 2 18.2 4.7 39.9 11.7 51.5 16.6 3.3 1.4 6.9 2.9 8 3.4 11.3 4.7 36.2 17.5 47.5 24.3 88.1 53.5 151.8 139.6 176.5 238.5 1.9 7.5 3.6 14.7 3.9 16.1.2 1.4 1.1 6.3 2 11 1.9 10.5 2.4 14.5 4.1 29 2.2 19.6 2.3 63.7.1 77-.3 1.4-.7 5.6-1.1 9.5-.4 3.8-.8 7.2-1 7.5-.1.3-.6 3.2-1 6.5-.3 3.2-.8 6.2-1 6.5-.2.3-.6 2.2-.9 4.4-1 6-5.2 24.3-7.6 32.6-1.2 4.1-2.3 8.2-2.5 9-.9 3.7-8.8 25.8-12.1 33.6-4.6 11.2-15.2 33-20.3 41.9-2.2 3.8-4.8 8.3-5.7 10-2 3.7-18.5 28.8-19.3 29.5-.3.3-3.5 4.3-7.1 9-3.5 4.7-7.6 9.8-9 11.4-1.4 1.6-4.3 5-6.5 7.5-4.7 5.4-30.4 31.3-35.5 35.6-10.4 9-20.7 17.1-31 24.4-6.3 4.4-12 8.4-12.5 8.9-6.5 5.4-48.9 27.9-62.5 33.2-3 1.2-6.8 2.8-8.5 3.6-13.4 6.3-58.4 18.5-80 21.8-5.4.8-17.9 2.5-22.5 3-20.8 2.4-58 2.5-78.5.1-2.2-.2-6.2-.7-9-1-4.9-.6-7.9-1-14-2-1.6-.3-5.7-.9-9-1.5-7.7-1.3-9.2-1.6-14-2.8-2.2-.6-5.1-1.3-6.5-1.6-4.9-.9-18.7-4.8-29.5-8.3-41.1-13.2-84.4-36.2-118.3-62.8-15.6-12.2-19.9-16.1-37.7-34-18-18-33.2-36.4-47.3-57.1-17.3-25.6-33.9-59.3-45.1-91.5-6.4-18.6-14.5-52.4-16.6-69.9-.4-3-.9-6.2-1-7.1-.2-.8-.6-5.1-1-9.5-.4-4.3-.8-9.5-1.1-11.4-.6-5.3-.6-45.6 0-52.5.3-3.3.8-8.9 1.1-12.5.4-5.6 1.9-17 3-23.5.1-1.1.6-3.8 1-6 4.3-26.3 15.7-64.2 26.2-87.5 7-15.3 16-32.9 22.8-44.5 5.4-9.2 23.1-35.3 25.5-37.5.3-.3 2.4-2.8 4.6-5.7 11.5-14.6 35.8-40.1 47.7-50 3.4-2.9 7.4-6.3 8.9-7.5 4.9-4.2 6.3-5.4 12.3-9.8 3.3-2.5 6.2-4.7 6.5-5 1.2-1.3 19.3-13.2 28-18.5 13.7-8.3 51.8-27.5 54.6-27.5.3 0 2-.7 3.7-1.5 10-4.5 52.1-17 64-18.9 2-.3 5.6-1 7.9-1.5 2.4-.6 6.6-1.3 9.3-1.6 2.8-.4 5.7-.8 6.5-1 .8-.2 4.2-.7 7.5-1 3.3-.4 7.1-.8 8.5-1.1 1.4-.2 9.3-.7 17.5-1 8.3-.4 15.1-.7 15.3-.9.3-.2 14.3.2 29.2 1z"/><path d="M481.1 195.4c-9.6 19.3-48 96.5-85.4 171.6-126.8 254.7-170.8 343.4-171 344.4-.1.7 11.2 1 32.3 1.1h32.5l11.9-24c12.9-26 40.1-81.3 58.1-118 18.8-38.5 37.4-76.3 54.5-111 20.5-41.7 41.3-84 54.5-111 12.3-25.2 26.4-53.7 28.9-58.3l1.7-3.4 29.5 59.4c16.3 32.6 33.2 66.6 37.6 75.5l8.1 16.3h64.6l-36.8-73.3c-20.2-40.2-51.5-102.6-69.6-138.5-18-35.8-33-65.4-33.3-65.6-.4-.2-8.5 15.5-18.1 34.8zM604.3 490.8c-1.8.2-3.3.5-3.3.7 0 .2 7.5 15.4 16.6 33.7 9.2 18.3 33.9 68 54.9 110.3l38.3 77h32c17.6 0 32.3-.3 32.7-.7.5-.4-108.4-218.7-110-220.6-.4-.4-57.1-.8-61.2-.4z"/></svg>