<svg version="1" xmlns="http://www.w3.org/2000/svg" width="1200" height="1200" viewBox="0 0 900.000000 900.000000"><path d="M417.5 1.1c-145.9 10.4-278.7 92.3-354 218.4C11.4 306.6-9.3 407.9 4 509.8 30.2 710 190 869.8 390.2 896c126.6 16.5 250.2-19.2 348.7-101 16.2-13.4 42.7-39.9 56.1-56.1 68.5-82.5 105-183 105-288.9 0-119.9-47-233-132-318C675.2 39.1 548.5-8.2 417.5 1.1zM498 64c55.8 7.3 106.7 24.9 152.7 52.8 94.1 57 158.8 149 180.8 257.1 5.4 26.5 6.9 43.3 6.9 76.1s-1.5 49.6-6.9 76.1C815.9 602.5 779.6 670.4 725 725c-54.6 54.5-122.6 90.9-198.9 106.5-26.5 5.4-43.3 6.9-76.1 6.9s-49.6-1.5-76.1-6.9c-76.3-15.6-144.3-52-198.9-106.5-54.5-54.6-90.9-122.6-106.5-198.9-5.4-26.5-6.9-43.3-6.9-76.1s1.5-49.6 6.9-76.1c15.6-76.3 52-144.3 106.5-198.9 65.8-65.8 151.1-105 245.4-113 17-1.4 60-.3 77.6 2z"/><path d="M233.8 213c-33 3.1-61.7 16.4-85.9 39.7-22.3 21.6-36.1 47.7-41.6 78.8-2.1 12.3-2.1 34.2.2 47 6.2 35.4 26.3 68.2 55.3 90 41.5 31.1 100.1 36.7 146.5 13.9 4.3-2.1 6-2.6 6.6-1.6.4.6 7.4 10.9 15.7 22.7l14.9 21.4 19.4.1c16.4 0 19.2-.2 18.8-1.4-.3-.8-10.1-15.3-21.7-32.1l-21.1-30.6 8.9-9.4c27.6-28.8 41.1-67.3 38.1-108.4-2.6-35-17.5-66.1-43.7-91.2-25.2-24.3-56.3-37.5-92.2-39.2-5.2-.3-13.4-.1-18.2.3zm28.2 31.4c67 10.2 110 76.1 91.4 140.3-10.8 37.4-39.3 65.9-76.7 76.7-45.5 13.2-95.6-5.1-122.5-44.9-14.1-20.8-21.1-48.4-18.4-72.6 4.4-39.7 27.4-72.6 62.3-89.3 21-10.1 42.1-13.4 63.9-10.2zM640.2 213.1c-10.8 1-26.8 4.6-36.6 8.3-37.5 14.1-69.1 45.9-83.3 83.6-8.7 23-11 53.6-5.8 78.5 5.2 25.3 17.9 49.4 35.6 68l8.9 9.2-54.5 77.9c-30 42.9-55 77.9-55.4 77.9-.5 0-10.5-13.8-22.2-30.8L405.7 555h-38.8l6.7 9.7c46.1 66.2 75.6 107.8 76.4 107.8.7 0 131.7-185.8 135-191.5.7-1.3 1.7-1.1 6.7 1.4 21.7 10.6 47.4 15.4 73.2 13.5 35-2.6 66.1-17.5 91.2-43.7 35.5-36.9 47.8-88.3 33.4-138.7-3.4-11.8-12.7-30.8-20.5-41.8-7.9-11-25-27.6-36-34.9-27.9-18.4-60.4-26.7-92.8-23.7zm26.6 30.9c25.3 3.2 51.6 16.6 68.2 34.7 21.3 23.3 32.5 56.3 29.2 86.4-4.2 38.9-26.7 71.6-60.7 88.4-20.2 10-40.7 13.9-61 11.6-46.1-5.2-83.1-36.2-95.9-80.3-14.5-50 9.2-105.1 55.4-128.7 20.9-10.7 42.9-14.8 64.8-12.1z"/></svg>