<svg version="1" xmlns="http://www.w3.org/2000/svg" width="1333.333" height="1333.333" viewBox="0 0 1000.000000 1000.000000"><path d="M180.5 168c-75.3 8-140.5 58.5-167 129.5-14 37.5-16.4 81-6.6 119.6 16.8 66.5 66.6 120.1 131.3 141.4 50.4 16.5 106.8 12.7 152.6-10.4l5.9-3L322 581l25.2 36h27.9c15.3 0 27.9-.2 27.9-.5 0-.5-57.2-83.7-63.6-92.6-1.9-2.6-3.4-5.1-3.4-5.6 0-.4 3.9-4.7 8.6-9.3 24.2-24.1 42.9-56.8 51.5-90.3 26.4-103.3-30.8-208.3-131.6-241.6-26.3-8.7-56.8-12-84-9.1zm48.5 32c75.6 12.4 132.4 71.9 141.9 149 4.9 39.3-6.7 84.3-30.3 117.3-12.1 16.9-20 24.5-40.9 39.1-22.4 15.6-27.6 18.4-45.2 24.1-20.4 6.7-29.4 8-54 7.9-23.6 0-32.8-1.5-52.5-8-42.4-14.1-77.1-43.9-97.4-83.4-18.3-35.7-23.7-74.4-15.6-112.8C53.8 243.9 139.1 185.3 229 200zM776.5 168.1c-12 1.3-31.1 5.5-42.7 9.5-13.2 4.5-35.9 15.6-46.8 23-71.6 48.1-104.5 134.4-83.1 218.1 8.5 33.4 25.8 63.8 50.4 89 6.8 7 9.7 10.5 9.1 11.5-1.9 3.1-162.7 232.4-163.9 233.6-1 1.1-6.8-6.7-33-44.7L434.7 662h-27.9c-23 0-27.8.2-27.1 1.3C383.1 669 499.4 834 500 834c.4 0 46.3-65 102-144.5l101.2-144.4 6.7 3.3c16.5 8.3 38.7 15.2 58.1 18.2 76.7 11.6 153.8-22.3 196.9-86.6 23-34.4 34.1-70.8 34.1-112 0-119.8-103-212.4-222.5-199.9zm44 31c47.7 5.7 92.5 33.7 119.7 74.9 34 51.2 37.7 116 9.7 171-23.8 46.9-65.9 78.7-118.9 90.1-8.9 2-13.6 2.3-31.5 2.3-24.6.1-33.7-1.2-54-7.9-17.6-5.7-22.8-8.5-45.2-24.1-20.8-14.6-28.7-22.1-41-39.1-8-11.1-18.3-31.6-22.7-45.4-16.1-49.4-9.1-102.4 19.2-145.9 35.7-55 98.3-83.8 164.7-75.9z"/></svg>