<svg xmlns="http://www.w3.org/2000/svg" xmlns:xlink="http://www.w3.org/1999/xlink" style="isolation:isolate" viewBox="0 0 100 100" width="100" height="100" id="ry7e9PVv25M">
    <style xmlns="http://www.w3.org/1999/xhtml">
        @-webkit-keyframes BkLf9D4vncz_Animation{65.24%{opacity: 1;}71.90%{opacity: 0;}0%{opacity: 1;}}@keyframes BkLf9D4vncz_Animation{65.24%{opacity: 1;}71.90%{opacity: 0;}0%{opacity: 1;}}@-webkit-keyframes SymGqwNvnqG_Animation{50.48%{opacity: 1;}56.67%{opacity: 0;}0%{opacity: 1;}100%{opacity: 0;}}@keyframes SymGqwNvnqG_Animation{50.48%{opacity: 1;}56.67%{opacity: 0;}0%{opacity: 1;}100%{opacity: 0;}}@-webkit-keyframes Sk5WcP4Dhcz_Animation{21.43%{opacity: 1;}28.10%{opacity: 0;}0%{opacity: 1;}}@keyframes Sk5WcP4Dhcz_Animation{21.43%{opacity: 1;}28.10%{opacity: 0;}0%{opacity: 1;}}@-webkit-keyframes Hy6WcvND2qf_Animation{28.57%{opacity: 1;}36.19%{opacity: 0;}0%{opacity: 1;}100%{opacity: 0;}}@keyframes Hy6WcvND2qf_Animation{28.57%{opacity: 1;}36.19%{opacity: 0;}0%{opacity: 1;}100%{opacity: 0;}}@-webkit-keyframes HkgfcDVDhqM_Animation{36.19%{opacity: 1;}42.86%{opacity: 0;}0%{opacity: 1;}100%{opacity: 0;}}@keyframes HkgfcDVDhqM_Animation{36.19%{opacity: 1;}42.86%{opacity: 0;}0%{opacity: 1;}100%{opacity: 0;}}@-webkit-keyframes Hkv-5wNw35G_Animation{14.29%{opacity: 1;}21.43%{opacity: 0;}0%{opacity: 1;}100%{opacity: 0;}}@keyframes Hkv-5wNw35G_Animation{14.29%{opacity: 1;}21.43%{opacity: 0;}0%{opacity: 1;}100%{opacity: 0;}}#ry7e9PVv25M *{-webkit-animation-duration: 7s;animation-duration: 7s;-webkit-animation-iteration-count: infinite;animation-iteration-count: infinite;-webkit-animation-timing-function: cubic-bezier(0, 0, 1, 1);animation-timing-function: cubic-bezier(0, 0, 1, 1);transform-box: fill-box;-webkit-transform-origin: 50% 50%;transform-origin: 50% 50%;}#rJ8xqPND2qz{fill: none;stroke-width: 2;stroke: rgb(0,0,255);}#BkPe5vVw2cf{fill: none;stroke-width: 2;stroke: rgb(0,0,255);}#H1tx5vEwhqz{fill: none;stroke-width: 2;stroke: rgb(0,0,255);}#BkqxqPVv3cz{fill: none;stroke-width: 2;stroke: rgb(0,0,255);}#rJhlqwEw2cM{fill: none;stroke-width: 2;stroke: rgb(159,0,0);}#BJag9DNw29f{fill: none;stroke-width: 2;stroke: rgb(159,0,0);}#BkJ-5PEwncf{fill: none;stroke-width: 2;stroke: rgb(0,0,255);}#Hkl-cv4v35M{fill: none;stroke-width: 2;stroke: rgb(0,0,255);}#ryGW5PVw39f{fill: none;stroke-width: 2;stroke: rgb(0,0,255);}#HJQZcvED3qf{fill: none;stroke-width: 2;stroke: rgb(0,0,255);}#SJBWcw4vncM{fill: none;stroke-width: 2;stroke: rgb(159,0,0);}#r1IW5DVPh9M{fill: none;stroke-width: 2;stroke: rgb(159,0,0);}#rJu-9vEwh9M{fill: none;stroke-width: 2;stroke: rgb(0,0,0);}#S1KbqwNw39f{fill: none;stroke-width: 2;stroke: rgb(0,0,0);}#S1jZcDNDhqG{fill: none;stroke-width: 2;stroke: rgb(0,0,0);}#H1nbqP4v2cM{fill: none;stroke-width: 2;stroke: rgb(0,0,0);}#rJA-9PED3cz{fill: none;stroke-width: 2;stroke: rgb(0,0,0);}#H1JG5PVw3qM{fill: none;stroke-width: 2;stroke: rgb(0,0,0);}#SJWGcDEw3qG{fill: none;stroke-width: 2;stroke: rgb(0,0,0);}#SJMf9wEv3qz{fill: none;stroke-width: 2;stroke: rgb(0,0,0);}#B14z9PNv39f{fill: none;stroke-width: 2;stroke: rgb(0,0,0);}#HySM9PVD3qz{fill: none;stroke-width: 2;stroke: rgb(0,0,0);}#BJvGcDEvhqG{fill: none;stroke-width: 2;stroke: rgb(0,0,0);}#rJOG5vND29M{fill: none;stroke-width: 2;stroke: rgb(0,0,0);}#Hkv-5wNw35G{-webkit-animation-name: Hkv-5wNw35G_Animation;animation-name: Hkv-5wNw35G_Animation;-webkit-transform-origin: 50% 50%;transform-origin: 50% 50%;opacity: 1;}#HkgfcDVDhqM{-webkit-animation-name: HkgfcDVDhqM_Animation;animation-name: HkgfcDVDhqM_Animation;-webkit-transform-origin: 50% 50%;transform-origin: 50% 50%;opacity: 1;}#Hy6WcvND2qf{-webkit-animation-name: Hy6WcvND2qf_Animation;animation-name: Hy6WcvND2qf_Animation;-webkit-transform-origin: 50% 50%;transform-origin: 50% 50%;opacity: 1;}#Sk5WcP4Dhcz{-webkit-animation-name: Sk5WcP4Dhcz_Animation;animation-name: Sk5WcP4Dhcz_Animation;-webkit-transform-origin: 50% 50%;transform-origin: 50% 50%;opacity: 1;}#SymGqwNvnqG{-webkit-animation-name: SymGqwNvnqG_Animation;animation-name: SymGqwNvnqG_Animation;-webkit-transform-origin: 50% 50%;transform-origin: 50% 50%;opacity: 1;}#BkLf9D4vncz{-webkit-animation-name: BkLf9D4vncz_Animation;animation-name: BkLf9D4vncz_Animation;-webkit-transform-origin: 50% 50%;transform-origin: 50% 50%;opacity: 1;}
    </style>
    <defs>
        <clipPath id="_clipPath_dLW8W53Bi49Uc35Vnor2fDUC3zkI7PBW">
            <rect width="100" height="100"/>
        </clipPath>
    </defs>
    <g clip-path="url(#_clipPath_dLW8W53Bi49Uc35Vnor2fDUC3zkI7PBW)" id="rJNx5PVvh9G">
        <g id="S1BgqPVw35M">
            <path d=" M 23.5 89 L 23.5 87 C 23.5 84.791 21.709 83 19.5 83 L 11.5 83 C 9.291 83 7.5 84.791 7.5 87 L 7.5 89" vector-effect="non-scaling-stroke" stroke-linejoin="round" stroke-linecap="round" stroke-miterlimit="4" id="rJ8xqPND2qz"/>
            <path d=" M 11.5 75 C 11.5 72.792 13.292 71 15.5 71 C 17.708 71 19.5 72.792 19.5 75 C 19.5 77.208 17.708 79 15.5 79 C 13.292 79 11.5 77.208 11.5 75 Z " vector-effect="non-scaling-stroke" stroke-linejoin="round" stroke-linecap="round" stroke-miterlimit="4" id="BkPe5vVw2cf"/>
        </g>
        <g id="H1deqw4P39f">
            <path d=" M 92.5 89 L 92.5 87 C 92.5 84.791 90.709 83 88.5 83 L 80.5 83 C 78.291 83 76.5 84.791 76.5 87 L 76.5 89" vector-effect="non-scaling-stroke" stroke-linejoin="round" stroke-linecap="round" stroke-miterlimit="4" id="H1tx5vEwhqz"/>
            <path d=" M 80.5 75 C 80.5 72.792 82.292 71 84.5 71 C 86.708 71 88.5 72.792 88.5 75 C 88.5 77.208 86.708 79 84.5 79 C 82.292 79 80.5 77.208 80.5 75 Z " vector-effect="non-scaling-stroke" stroke-linejoin="round" stroke-linecap="round" stroke-miterlimit="4" id="BkqxqPVv3cz"/>
        </g>
        <g id="Bksl9PNw3qM">
            <path d=" M 69.5 89 L 69.5 87 C 69.5 84.791 67.709 83 65.5 83 L 57.5 83 C 55.291 83 53.5 84.791 53.5 87 L 53.5 89" vector-effect="non-scaling-stroke" stroke-linejoin="round" stroke-linecap="round" stroke-miterlimit="4" id="rJhlqwEw2cM"/>
            <path d=" M 57.5 75 C 57.5 72.792 59.292 71 61.5 71 C 63.708 71 65.5 72.792 65.5 75 C 65.5 77.208 63.708 79 61.5 79 C 59.292 79 57.5 77.208 57.5 75 Z " vector-effect="non-scaling-stroke" stroke-linejoin="round" stroke-linecap="round" stroke-miterlimit="4" id="BJag9DNw29f"/>
        </g>
        <g id="B1Ce5PVD3qG">
            <path d=" M 46.5 89 L 46.5 87 C 46.5 84.791 44.709 83 42.5 83 L 34.5 83 C 32.291 83 30.5 84.791 30.5 87 L 30.5 89" vector-effect="non-scaling-stroke" stroke-linejoin="round" stroke-linecap="round" stroke-miterlimit="4" id="BkJ-5PEwncf"/>
            <path d=" M 34.5 75 C 34.5 72.792 36.292 71 38.5 71 C 40.708 71 42.5 72.792 42.5 75 C 42.5 77.208 40.708 79 38.5 79 C 36.292 79 34.5 77.208 34.5 75 Z " vector-effect="non-scaling-stroke" stroke-linejoin="round" stroke-linecap="round" stroke-miterlimit="4" id="Hkl-cv4v35M"/>
        </g>
        <g id="HJZb5DVPhqG">
            <path d=" M 58 59 L 58 57 C 58 54.791 56.209 53 54 53 L 46 53 C 43.791 53 42 54.791 42 57 L 42 59" vector-effect="non-scaling-stroke" stroke-linejoin="round" stroke-linecap="round" stroke-miterlimit="4" id="ryGW5PVw39f"/>
            <path d=" M 46 45 C 46 42.792 47.792 41 50 41 C 52.208 41 54 42.792 54 45 C 54 47.208 52.208 49 50 49 C 47.792 49 46 47.208 46 45 Z " vector-effect="non-scaling-stroke" stroke-linejoin="round" stroke-linecap="round" stroke-miterlimit="4" id="HJQZcvED3qf"/>
        </g>
        <g id="rkNW9vVv35z">
            <path d=" M 51 8 L 44 8 C 42.895 8 42 8.895 42 10 L 42 26 C 42 27.105 42.895 28 44 28 L 56 28 C 57.105 28 58 27.105 58 26 L 58 15 L 51 8 Z " vector-effect="non-scaling-stroke" stroke-linejoin="round" stroke-linecap="round" stroke-miterlimit="4" id="SJBWcw4vncM"/>
            <path d=" M 51 9 L 51 16 L 53.5 16 L 58 16" vector-effect="non-scaling-stroke" stroke-linejoin="round" stroke-linecap="round" stroke-miterlimit="4" id="r1IW5DVPh9M"/>
        </g>
        <g id="Hkv-5wNw35G">
            <path d=" M 23.5 89 L 23.5 87 C 23.5 84.791 21.709 83 19.5 83 L 11.5 83 C 9.291 83 7.5 84.791 7.5 87 L 7.5 89" vector-effect="non-scaling-stroke" stroke-linejoin="round" stroke-linecap="round" stroke-miterlimit="4" id="rJu-9vEwh9M"/>
            <path d=" M 11.5 75 C 11.5 72.792 13.292 71 15.5 71 C 17.708 71 19.5 72.792 19.5 75 C 19.5 77.208 17.708 79 15.5 79 C 13.292 79 11.5 77.208 11.5 75 Z " vector-effect="non-scaling-stroke" stroke-linejoin="round" stroke-linecap="round" stroke-miterlimit="4" id="S1KbqwNw39f"/>
        </g>
        <g id="Sk5WcP4Dhcz">
            <path d=" M 92.5 89 L 92.5 87 C 92.5 84.791 90.709 83 88.5 83 L 80.5 83 C 78.291 83 76.5 84.791 76.5 87 L 76.5 89" vector-effect="non-scaling-stroke" stroke-linejoin="round" stroke-linecap="round" stroke-miterlimit="4" id="S1jZcDNDhqG"/>
            <path d=" M 80.5 75 C 80.5 72.792 82.292 71 84.5 71 C 86.708 71 88.5 72.792 88.5 75 C 88.5 77.208 86.708 79 84.5 79 C 82.292 79 80.5 77.208 80.5 75 Z " vector-effect="non-scaling-stroke" stroke-linejoin="round" stroke-linecap="round" stroke-miterlimit="4" id="H1nbqP4v2cM"/>
        </g>
        <g id="Hy6WcvND2qf">
            <path d=" M 69.5 89 L 69.5 87 C 69.5 84.791 67.709 83 65.5 83 L 57.5 83 C 55.291 83 53.5 84.791 53.5 87 L 53.5 89" vector-effect="non-scaling-stroke" stroke-linejoin="round" stroke-linecap="round" stroke-miterlimit="4" id="rJA-9PED3cz"/>
            <path d=" M 57.5 75 C 57.5 72.792 59.292 71 61.5 71 C 63.708 71 65.5 72.792 65.5 75 C 65.5 77.208 63.708 79 61.5 79 C 59.292 79 57.5 77.208 57.5 75 Z " vector-effect="non-scaling-stroke" stroke-linejoin="round" stroke-linecap="round" stroke-miterlimit="4" id="H1JG5PVw3qM"/>
        </g>
        <g id="HkgfcDVDhqM">
            <path d=" M 46.5 89 L 46.5 87 C 46.5 84.791 44.709 83 42.5 83 L 34.5 83 C 32.291 83 30.5 84.791 30.5 87 L 30.5 89" vector-effect="non-scaling-stroke" stroke-linejoin="round" stroke-linecap="round" stroke-miterlimit="4" id="SJWGcDEw3qG"/>
            <path d=" M 34.5 75 C 34.5 72.792 36.292 71 38.5 71 C 40.708 71 42.5 72.792 42.5 75 C 42.5 77.208 40.708 79 38.5 79 C 36.292 79 34.5 77.208 34.5 75 Z " vector-effect="non-scaling-stroke" stroke-linejoin="round" stroke-linecap="round" stroke-miterlimit="4" id="SJMf9wEv3qz"/>
        </g>
        <g id="SymGqwNvnqG">
            <path d=" M 58 59 L 58 57 C 58 54.791 56.209 53 54 53 L 46 53 C 43.791 53 42 54.791 42 57 L 42 59" vector-effect="non-scaling-stroke" stroke-linejoin="round" stroke-linecap="round" stroke-miterlimit="4" id="B14z9PNv39f"/>
            <path d=" M 46 45 C 46 42.792 47.792 41 50 41 C 52.208 41 54 42.792 54 45 C 54 47.208 52.208 49 50 49 C 47.792 49 46 47.208 46 45 Z " vector-effect="non-scaling-stroke" stroke-linejoin="round" stroke-linecap="round" stroke-miterlimit="4" id="HySM9PVD3qz"/>
        </g>
        <g id="BkLf9D4vncz">
            <path d=" M 51 8 L 44 8 C 42.895 8 42 8.895 42 10 L 42 26 C 42 27.105 42.895 28 44 28 L 56 28 C 57.105 28 58 27.105 58 26 L 58 15 L 51 8 Z " vector-effect="non-scaling-stroke" stroke-linejoin="round" stroke-linecap="round" stroke-miterlimit="4" id="BJvGcDEvhqG"/>
            <path d=" M 51 9 L 51 16 L 53.5 16 L 58 16" vector-effect="non-scaling-stroke" stroke-linejoin="round" stroke-linecap="round" stroke-miterlimit="4" id="rJOG5vND29M"/>
        </g>
    </g>
</svg>